<?xml version="1.0" encoding="UTF-8"?>
<!DOCTYPE svg PUBLIC "-//W3C//DTD SVG 1.1//EN" "http://www.w3.org/Graphics/SVG/1.1/DTD/svg11.dtd">
<!-- Creator: CorelDRAW -->
<svg xmlns="http://www.w3.org/2000/svg" xml:space="preserve" width="50px" height="50px" version="1.1" style="shape-rendering:geometricPrecision; text-rendering:geometricPrecision; image-rendering:optimizeQuality; fill-rule:evenodd; clip-rule:evenodd"
viewBox="0 0 50 50"
 xmlns:xlink="http://www.w3.org/1999/xlink"
 xmlns:xodm="http://www.corel.com/coreldraw/odm/2003">
 <defs>
  <style type="text/css">
   <![CDATA[
    .fil0 {fill:#FEFEFE}
   ]]>
  </style>
 </defs>
 <g id="Camada_x0020_1">
  <metadata id="CorelCorpID_0Corel-Layer"/>
  <path class="fil0" d="M31.48 12.47l9.3 12.53 -15.79 21.05 6.9 0.11c2.82,0.04 2.78,-0.5 4.61,-2.89l12.49 -16.44c1.05,-1.4 1.5,-1.64 0.27,-3.23l-8.46 -10.95 -9.32 -0.18zm-12.96 25.06l-9.3 -12.53 15.79 -21.05 -6.9 -0.11c-2.82,-0.04 -2.78,0.5 -4.61,2.89l-12.49 16.44c-1.05,1.4 -1.5,1.64 -0.27,3.23l8.46 10.95 9.32 0.18zm6.48 -25.06l8.62 11.12c0.6,0.77 0.59,2.07 -0.04,2.87l-8.58 11.07 -8.62 -11.12c-0.6,-0.77 -0.59,-2.07 0.04,-2.87l8.58 -11.07z"/>
 </g>
</svg>
