<?xml version="1.0" encoding="UTF-8"?>
<!DOCTYPE svg PUBLIC "-//W3C//DTD SVG 1.1//EN" "http://www.w3.org/Graphics/SVG/1.1/DTD/svg11.dtd">
<!-- Creator: CorelDRAW -->
<svg xmlns="http://www.w3.org/2000/svg" xml:space="preserve" width="250px" height="50px" version="1.1" style="shape-rendering:geometricPrecision; text-rendering:geometricPrecision; image-rendering:optimizeQuality; fill-rule:evenodd; clip-rule:evenodd"
viewBox="0 0 250 50"
 xmlns:xlink="http://www.w3.org/1999/xlink"
 xmlns:xodm="http://www.corel.com/coreldraw/odm/2003">
 <defs>
  <style type="text/css">
   <![CDATA[
    .fil0 {fill:#FEFEFE;fill-rule:nonzero}
   ]]>
  </style>
 </defs>
 <g id="Camada_x0020_1">
  <metadata id="CorelCorpID_0Corel-Layer"/>
  <path class="fil0" d="M34.34 45c-3.04,0 -5.85,-0.49 -8.44,-1.46 -2.58,-0.97 -4.81,-2.35 -6.7,-4.14 -1.88,-1.8 -3.36,-3.91 -4.42,-6.35 -1.06,-2.44 -1.6,-5.12 -1.6,-8.05 0,-2.93 0.54,-5.61 1.6,-8.05 1.06,-2.44 2.54,-4.55 4.42,-6.35 1.89,-1.79 4.12,-3.17 6.7,-4.14 2.59,-0.97 5.4,-1.46 8.44,-1.46 3.55,0 6.73,0.62 9.53,1.87 2.8,1.24 5.14,3.04 7.01,5.38l-6.93 6.27c-1.24,-1.47 -2.61,-2.59 -4.09,-3.36 -1.48,-0.76 -3.14,-1.15 -4.97,-1.15 -1.58,0 -3.02,0.26 -4.34,0.77 -1.32,0.51 -2.45,1.25 -3.38,2.23 -0.94,0.97 -1.67,2.13 -2.2,3.48 -0.53,1.36 -0.8,2.86 -0.8,4.51 0,1.65 0.27,3.15 0.8,4.51 0.53,1.35 1.26,2.51 2.2,3.48 0.93,0.98 2.06,1.72 3.38,2.23 1.32,0.51 2.76,0.77 4.34,0.77 1.83,0 3.49,-0.39 4.97,-1.15 1.48,-0.77 2.85,-1.89 4.09,-3.36l6.93 6.27c-1.87,2.3 -4.21,4.09 -7.01,5.35 -2.8,1.27 -5.98,1.9 -9.53,1.9z"/>
  <path id="_1" class="fil0" d="M74.23 44.89c-3,0.04 -5.82,-0.43 -8.43,-1.4 -2.62,-0.97 -4.89,-2.36 -6.82,-4.18 -1.92,-1.81 -3.4,-3.93 -4.45,-6.37 -1.04,-2.44 -1.56,-5.08 -1.56,-7.94 -0.04,-2.89 0.48,-5.54 1.56,-7.94 1.08,-2.4 2.58,-4.5 4.48,-6.32 1.9,-1.81 4.17,-3.21 6.79,-4.2 2.61,-0.99 5.43,-1.48 8.43,-1.48 3.15,-0.04 6.01,0.44 8.57,1.45 2.57,1.01 4.81,2.41 6.73,4.2 1.93,1.8 3.42,3.91 4.48,6.32 1.06,2.42 1.58,5.08 1.54,7.97 0.04,2.89 -0.48,5.56 -1.54,7.99 -1.06,2.44 -2.55,4.55 -4.48,6.32 -1.92,1.78 -4.16,3.17 -6.73,4.18 -2.56,1.01 -5.42,1.47 -8.57,1.4zm0 -8.79c1.5,-0.07 2.88,-0.37 4.15,-0.88 1.26,-0.51 2.36,-1.25 3.29,-2.23 0.94,-0.97 1.68,-2.12 2.23,-3.46 0.55,-1.33 0.82,-2.85 0.82,-4.53 -0.03,-1.68 -0.32,-3.21 -0.85,-4.56 -0.53,-1.36 -1.26,-2.51 -2.2,-3.46 -0.93,-0.95 -2.02,-1.7 -3.26,-2.23 -1.25,-0.53 -2.64,-0.81 -4.18,-0.85 -1.43,0.07 -2.78,0.37 -4.07,0.88 -1.28,0.51 -2.39,1.25 -3.32,2.2 -0.93,0.95 -1.66,2.1 -2.17,3.46 -0.51,1.35 -0.79,2.88 -0.83,4.56 0.04,1.65 0.32,3.16 0.83,4.53 0.51,1.38 1.25,2.54 2.2,3.49 0.95,0.95 2.05,1.7 3.29,2.23 1.25,0.53 2.6,0.81 4.07,0.85z"/>
  <path id="_2" class="fil0" d="M101.43 44.23l-0.06 -38.46 18.19 0c4.25,0 7.99,0.79 11.21,2.36 3.22,1.58 5.74,3.79 7.55,6.65 1.82,2.86 2.71,6.26 2.67,10.22 0.04,3.92 -0.85,7.32 -2.67,10.19 -1.81,2.88 -4.33,5.1 -7.55,6.68 -3.22,1.57 -6.96,2.36 -11.21,2.36l-18.13 0zm10.82 -8.68l6.87 0c2.24,0.04 4.16,-0.37 5.77,-1.21 1.61,-0.84 2.87,-2.06 3.79,-3.65 0.92,-1.6 1.39,-3.49 1.43,-5.69 -0.04,-2.23 -0.51,-4.14 -1.43,-5.71 -0.92,-1.58 -2.18,-2.79 -3.79,-3.63 -1.61,-0.84 -3.53,-1.25 -5.77,-1.21l-6.87 -0.05 0 21.15z"/>
  <polygon id="_3" class="fil0" points="146.81,44.23 146.76,5.77 157.64,5.77 157.64,44.23 "/>
  <path id="_4" class="fil0" d="M184.56 45c-3.04,0 -5.85,-0.49 -8.43,-1.46 -2.59,-0.97 -4.82,-2.35 -6.71,-4.14 -1.88,-1.8 -3.36,-3.91 -4.42,-6.35 -1.06,-2.44 -1.59,-5.12 -1.59,-8.05 0,-2.93 0.53,-5.61 1.59,-8.05 1.06,-2.44 2.54,-4.55 4.42,-6.35 1.89,-1.79 4.12,-3.17 6.71,-4.14 2.58,-0.97 5.39,-1.46 8.43,-1.46 3.55,0 6.73,0.62 9.53,1.87 2.81,1.24 5.14,3.04 7.01,5.38l-6.92 6.27c-1.25,-1.47 -2.61,-2.59 -4.1,-3.36 -1.48,-0.76 -3.14,-1.15 -4.97,-1.15 -1.57,0 -3.02,0.26 -4.34,0.77 -1.32,0.51 -2.45,1.25 -3.38,2.23 -0.93,0.97 -1.67,2.13 -2.2,3.48 -0.53,1.36 -0.79,2.86 -0.79,4.51 0,1.65 0.26,3.15 0.79,4.51 0.53,1.35 1.27,2.51 2.2,3.48 0.93,0.98 2.06,1.72 3.38,2.23 1.32,0.51 2.77,0.77 4.34,0.77 1.83,0 3.49,-0.39 4.97,-1.15 1.49,-0.77 2.85,-1.89 4.1,-3.36l6.92 6.27c-1.87,2.3 -4.2,4.09 -7.01,5.35 -2.8,1.27 -5.98,1.9 -9.53,1.9z"/>
  <path id="_5" class="fil0" d="M215.88 20.71l17.91 -0.05 -0.05 8.08 -17.81 0.05 -0.05 -8.08zm0.71 15.17l20.22 -0.06 -0.05 8.41 -30.83 0 0.06 -38.46 30.11 0 -0.11 8.35 -19.29 0.06 -0.11 21.7z"/>
 </g>
</svg>
